<?xml version="1.0" standalone="no"?>
<!DOCTYPE svg PUBLIC "-//W3C//DTD SVG 20010904//EN"
 "http://www.w3.org/TR/2001/REC-SVG-20010904/DTD/svg10.dtd">
<svg version="1.0" xmlns="http://www.w3.org/2000/svg"
 width="1839.000000pt" height="2123.000000pt" viewBox="0 0 1839.000000 2123.000000"
 preserveAspectRatio="xMidYMid meet">

<g transform="translate(0.000000,2123.000000) scale(0.100000,-0.100000)"
fill="#000000" stroke="none">
<path d="M7210 20047 l-1965 -1173 -2 -5340 -3 -5339 1971 -1165 c1084 -641
1976 -1164 1982 -1162 9 3 3758 2314 3775 2327 1 1 -851 523 -1893 1160
l-1895 1158 0 2178 c0 1199 -2 2179 -4 2179 -1 0 -259 -151 -572 -336 -313
-185 -593 -350 -621 -366 l-53 -30 0 1654 1 1653 629 340 630 339 0 1548 c0
851 -3 1548 -7 1548 -5 0 -892 -528 -1973 -1173z"/>
<path d="M1252 16539 l-1242 -741 2 -5305 3 -5306 4578 -2588 4578 -2589 43
23 c123 63 9156 5153 9156 5158 0 13 -2642 1471 -2658 1466 -14 -3 -6402
-3644 -6507 -3707 l-30 -19 -3335 1813 -3335 1812 -5 5362 -5 5362 -1243 -741z"/>
</g>
</svg>
